World of the Dead: The Zombie Diaries 2011 BDrip 720p - TRiNiTY


Information:


EnCoDeR :.... whitestag13
Source : ... The Zombie Diaries 2011 BluRay 1080p AVC DTS-HD 5.1
Encoded date : ... 2011-12-18 09:23:48
Complete name : ... The Zombie Diaries 2011 BDrip 720p - TRiNiTY
Video Format : ... x264
File size : ... 1.90 GiB
Duration : ... 1h 32 mn
Overall bit rate : ... 2 990 Kbps
IMDB : ... http://www.imdb.com/title/tt1733578/
Languages : ... English
Subtitles : ... none sorry


Details:


Format : Matroska
Format version : Version 2
File size : 1.92 GiB
Duration : 1h 32mn
Overall bit rate : 2 990 Kbps
Encoded date : UTC 2011-12-18 09:23:48
Writing library : libebml v1.2.1 + libmatroska v1.1.1

Video
ID : 1
Format : AVC
Format/Info : Advanced Video Codec
Format profile : High@L4.1
Format settings, CABAC : Yes
Format settings, ReFrames : 3 frames
Codec ID : V_MPEG4/ISO/AVC
Duration : 1h 32mn
Bit rate mode : Variable
Bit rate : 2 350 Kbps
Maximum bit rate : 40.0 Mbps
Width : 1 280 pixels
Height : 544 pixels
Display aspect ratio : 2.35:1
Frame rate : 24.000 fps
Color space : YUV
Chroma subsampling : 4:2:0
Bit depth : 8 bits
Scan type : Progressive
Bits/(Pixel*Frame) : 0.141
Stream size : 1.47 GiB (77%)
Writing library : x264 core 116 r2074 2641b9e
Language : English

Audio
ID : 2
Format : AC-3
Format/Info : Audio Coding 3
Mode extension : CM (complete main)
Codec ID : A_AC3
Duration : 1h 32mn
Bit rate mode : Constant
Bit rate : 640 Kbps
Channel(s) : 6 channels
Channel positions : Front: L C R, Side: L R, LFE
Sampling rate : 48.0 KHz
Bit depth : 16 bits
Compression mode : Lossy
Stream size : 421 MiB (21%)


Poster:

 
http://i.imgur.com/jAoOB.jpg


Screens:

 
http://i.imgur.com/7F6Zv.png

 
http://i.imgur.com/XEwq8.jpg

 
http://i.imgur.com/E0vPC.jpg


ENJOY!